HIERARCHY
ROOT Hips
{
	OFFSET	0.00	0.00	0.00
	CHANNELS 6 Xposition Yposition Zposition Zrotation Yrotation Xrotation
	JOINT Spine
	{
		OFFSET	 0.00	0.1	 0.00
		CHANNELS 3 Zrotation Yrotation Xrotation
		JOINT Spine1
		{
			OFFSET	 0.00	 24.5913012437421	 0.00
			CHANNELS 3 Zrotation Yrotation Xrotation
            JOINT Neck
            {
                OFFSET	 0.00	 24.8462964506057	 0.00
                CHANNELS 3 Zrotation Yrotation Xrotation
                JOINT Head
                {
                    OFFSET	 0.00	 9.27524780924562	 0.00
                    CHANNELS 3 Zrotation Yrotation Xrotation
                    End Site
                    {
                        OFFSET	 0.00	 11.4999962169752	 0.00
                    }
                }
            }
			JOINT LeftShoulder
			{
				OFFSET	 0.00	 24.8462964506057	 0.00
				CHANNELS 3 Zrotation Yrotation Xrotation
				JOINT LeftUpArm
				{
					OFFSET	 0.00	 12.4881979654096	 0.00
					CHANNELS 3 Zrotation Yrotation Xrotation
					JOINT LeftForeArm
					{
						OFFSET	 0.00	25.9758046908119	 0.00
						CHANNELS 3 Zrotation Yrotation Xrotation
						JOINT LeftHand
						{
							OFFSET	 0.00	24.5542024364365	 0.00
							CHANNELS 3 Zrotation Yrotation Xrotation
							JOINT LeftHandThumb
							{
								OFFSET	 0.00	0.00	 0.00
								CHANNELS 3 Zrotation Yrotation Xrotation
								End Site
								{
									OFFSET	 0.00	0.00	10.0000003353624
								}
							}
							JOINT L_Wrist_End
							{
								OFFSET	 0.00	9.9999967115358	 0.00
								CHANNELS 3 Zrotation Yrotation Xrotation
								End Site
								{
									OFFSET	 0.00	 0.00	 0.00
								}
							}
						}
					}
				}
			}
			JOINT RightShoulder
			{
				OFFSET	 0.00	 24.8462964506057	 0.00
				CHANNELS 3 Zrotation Yrotation Xrotation
				JOINT RightUpArm
				{
					OFFSET	 0.00	 12.4881979654096	 0.00
					CHANNELS 3 Zrotation Yrotation Xrotation
					JOINT RightForeArm
					{
						OFFSET	 0.00	25.9758046908119	 0.00
						CHANNELS 3 Zrotation Yrotation Xrotation
						JOINT RightHand
						{
							OFFSET	 0.00	24.5542024364365	 0.00
							CHANNELS 3 Zrotation Yrotation Xrotation
							JOINT RightHandThumb
							{
								OFFSET	 0.00	0.00	 0.00
								CHANNELS 3 Zrotation Yrotation Xrotation
								End Site
								{
									OFFSET	 0.00	0.00	10.0000003353624
								}
							}
							JOINT R_Wrist_End
							{
								OFFSET	 0.00	9.9999967115358	 0.00
								CHANNELS 3 Zrotation Yrotation Xrotation
								End Site
								{
									OFFSET	 0.00	 0.00	 0.00
								}
							}
						}
					}
				}
			}
		}
	}
	JOINT LeftUpLeg
	{
		OFFSET	 12.719394002717	 0.00	 0.00
		CHANNELS 3 Zrotation Yrotation Xrotation
		JOINT LeftLowLeg
		{
			OFFSET	 0.00	-43.429100912261	 0.00
			CHANNELS 3 Zrotation Yrotation Xrotation
			JOINT LeftFoot
			{
				OFFSET	 0.00	-44.8767017425826	 0.00
				CHANNELS 3 Zrotation Yrotation Xrotation
				JOINT LeftToeBase
                {
                    OFFSET	 0.00	0.00	 15.1507020887566
                    CHANNELS 3 Zrotation Yrotation Xrotation
                    End Site
                    {
                        OFFSET	 0.00	0.00	 7.5000010571191
                    }
                }
			}
		}
	}
	JOINT RightUpLeg
	{
		OFFSET	 -12.719393604653	 0.00	 0.00
		CHANNELS 3 Zrotation Yrotation Xrotation
		JOINT RightLowLeg
		{
			OFFSET	 0.00	-43.429100912261	 0.00
			CHANNELS 3 Zrotation Yrotation Xrotation
			JOINT RightFoot
			{
				OFFSET	 0.00	-44.8767017425826	 0.00
				CHANNELS 3 Zrotation Yrotation Xrotation
				JOINT RightToeBase
                {
                    OFFSET	 0.00	0.00	 15.1507020887566
                    CHANNELS 3 Zrotation Yrotation Xrotation
                    End Site 
                    {
                        OFFSET	 0.00	0.00	 7.49999965609858
                    }
                }   
			}
		}
	}
}
MOTION 
Frames:	5 
Frame Time: 0.04 
  21.32740020751953 70.92490234375 -4.329550170898438 2.4008333445278374 -8.611874860803656 166.34609249307238 1.8602083513849912 -3.1026976616369493 -164.09196395590632 -3.1018108590210867 7.819696962180312 12.40274082503432 52.71312012739821 -20.28934487710945 54.16110228949487 0.34337837245532177 -2.3475799387904845 -99.12627460188803 -110.20699848664817 6.487552739826056 10.958533483725631 -38.19225155960544 13.238259046650025 25.363660038510442 0.0 0.0 112.38500213623047 -120.51246394267137 -38.406557603644224 92.95108083239143 0.0 0.0 0.0 0.0 0.0 0.0 113.91919457910335 2.866951079831685 0.3497117232894881 42.75304554776026 -27.492937764583836 9.336123306175375 0.0 0.0 131.01100158691406 -49.54546220357873 8.656323002806468 -48.4271837286554 0.0 0.0 0.0 0.0 0.0 0.0 3.1549136525866617 -8.65585403814891 128.86816398192053 0.0 0.0 69.75980377197266 -15.494892231553811 14.13058869595181 4.738491122867578 0.0 0.0 -23.301010131835938 -5.4050722628902985 1.722762923469459 127.44559632805623 0.0 0.0 68.99230194091797 21.78149554968376 -11.607198884450941 4.544014623631193 0.0 0.0 -28.753101348876953 
  21.33280029296875 70.89409790039062 -4.330910110473633 2.4311907392998977 -8.555196199731139 166.34379132503287 1.7819277898922972 -3.0961913243849124 -164.10698812229572 -3.1751469075746694 7.924754988708702 12.780287277267872 52.46960536202955 -20.471177079379515 52.82990892446859 0.2766378348509416 -1.595762027018189 -98.93313175965802 -110.54227363126901 6.462146010064374 11.043438396489455 -37.941470714873454 12.884165632356604 25.461123596312923 0.0 0.0 113.05999755859375 -110.77381339873133 -40.93200930926442 85.83612059086612 0.0 0.0 0.0 0.0 0.0 0.0 114.06322222921433 3.3648942819617527 0.4331858354424784 42.95581653557139 -27.559038814914473 8.525794234328245 0.0 0.0 131.18800354003906 -50.193222603993874 9.390730312429067 -48.996228274746464 0.0 0.0 0.0 0.0 0.0 0.0 3.1653305113550414 -8.464345733344679 128.8498516907718 0.0 0.0 69.78170013427734 -15.62408820478233 14.219772908419401 4.674735449364182 0.0 0.0 -23.273910522460938 -5.3684634601248415 1.78634112489878 127.39178485612557 0.0 0.0 69.0594024658203 21.7833958695698 -11.59932827750517 4.5435794791941 0.0 0.0 -28.803798675537113 
  21.332400512695312 70.90759887695313 -4.347510147094726 2.4094285411392993 -8.552342570531296 166.32374278864498 1.60029513947657 -3.0667164575851085 -164.1931724479287 -3.432056105689419 7.933404868171867 13.201499926543619 52.446022018383644 -20.57037048968221 51.93132784450753 0.2792761028033847 -0.9259302651922386 -98.68234413334663 -110.59065549333279 6.737088648449657 11.299037571567984 -37.442914953351504 12.783471875930845 25.779147436512 0.0 0.0 113.7509994506836 -107.4626812679424 -43.58730029311092 78.2708516038196 0.0 0.0 0.0 0.0 0.0 0.0 114.05896608067572 4.2687556693726965 0.6295966475433429 43.86930048496543 -26.121285655292652 7.434521670166239 0.0 0.0 130.75999450683594 -47.39538597081776 11.111994684987149 -51.33570001269479 0.0 0.0 0.0 0.0 0.0 0.0 3.096869492484437 -8.319094665283032 128.88557988137353 0.0 0.0 69.7605972290039 -15.675232178129862 14.302461721760436 4.673150800964131 0.0 0.0 -23.225339889526367 -5.3870030177175625 1.794237596627417 127.43622193275792 0.0 0.0 69.01260375976562 21.759136786000195 -11.608786729183812 4.569872228043327 0.0 0.0 -28.791099548339844 
  21.322599792480467 70.9364990234375 -4.349219894409179 2.4075955290447353 -8.584521360798716 166.2730433996703 1.6317011724376103 -3.0642522497807723 -164.41374956217103 -3.343775223223489 7.915506007122529 13.647610051880052 52.51460705210813 -20.503815308268678 51.93822086871516 0.3507385195632205 -0.8347004819746368 -98.45791322374409 -110.59520238272317 7.03402634637482 11.592546396788224 -37.01629997646604 12.487553479368627 26.163617474150122 0.0 0.0 113.68699645996092 -95.79356303494315 -48.161575572602445 68.04729069943252 0.0 0.0 0.0 0.0 0.0 0.0 114.16491558451658 4.0297341885483275 0.6576449291350134 44.196926568609086 -22.480780914715766 7.6427708184485175 0.0 0.0 130.06399536132812 -40.629110751240376 12.762493531760542 -54.28121032256708 0.0 0.0 0.0 0.0 0.0 0.0 3.0589739935772027 -8.305432647271957 128.98055311883402 0.0 0.0 69.70919799804688 -15.749540952255616 14.330190453144033 4.652257317417438 0.0 0.0 -23.1861400604248 -5.39767702116263 1.7609063818942765 127.53129368330417 0.0 0.0 68.95140075683594 21.788039730237564 -11.605415379786411 4.568693225604071 0.0 0.0 -28.789899826049805 
  21.319599914550782 70.94619750976562 -4.363980102539062 2.441989190112227 -8.621363695013123 166.2221867947136 1.3747643894416177 -3.003048010356276 -163.98982427528162 -4.090919704666649 7.425212338741549 12.62559801420435 53.09038589131144 -20.540816081379454 53.79158843581266 0.2172736598725726 -1.711764987629871 -98.63615501370128 -110.4168053215663 7.663268549326935 11.191324383420838 -36.529638869705146 11.94520064644018 26.610606577778384 0.0 0.0 113.0 -91.8115940039299 -48.005316734313816 69.68717871612434 0.0 0.0 0.0 0.0 0.0 0.0 114.7635730804181 2.6974822592414296 1.1211925585650564 44.51895730652293 -17.81020613497138 7.92647457583555 0.0 0.0 129.39500427246097 -35.62331528583439 15.15435924673851 -57.86267144558521 0.0 0.0 0.0 0.0 0.0 0.0 3.072771083846205 -8.352740422077224 129.0460262377495 0.0 0.0 69.66909790039062 -15.727785236386303 14.340450468625951 4.683338197285497 0.0 0.0 -23.23353958129883 -5.389502442268302 1.7707392969671951 127.57885797460443 0.0 0.0 68.92739868164062 21.735267794305475 -11.58583955501192 4.602369682765196 0.0 0.0 -28.797901153564457 
